<svg width="88" height="72" viewBox="0 0 88 72" fill="none" xmlns="http://www.w3.org/2000/svg">
<rect width="88" height="72" rx="8" fill="#F5F5F5"/>
<path d="M44.0004 37.7338C43.8271 37.7338 43.6538 37.6938 43.4938 37.6005L31.7204 30.7871C31.2538 30.5071 31.0804 29.8938 31.3604 29.4138C31.6404 28.9338 32.2538 28.7738 32.7338 29.0538L44.0004 35.5738L55.2004 29.0938C55.6804 28.8138 56.2938 28.9871 56.5738 29.4538C56.8538 29.9338 56.6804 30.5471 56.2138 30.8271L44.5204 37.6005C44.3471 37.6805 44.1738 37.7338 44.0004 37.7338Z" fill="#AF04EB"/>
<path d="M44 49.814C43.4533 49.814 43 49.3607 43 48.814V36.7207C43 36.174 43.4533 35.7207 44 35.7207C44.5467 35.7207 45 36.174 45 36.7207V48.814C45 49.3607 44.5467 49.814 44 49.814Z" fill="#AF04EB"/>
<path d="M43.9999 50.3327C42.8265 50.3327 41.6665 50.0794 40.7465 49.5727L33.6265 45.6127C31.6932 44.546 30.1865 41.9727 30.1865 39.7593V32.226C30.1865 30.0127 31.6932 27.4527 33.6265 26.3727L40.7465 22.426C42.5732 21.4127 45.4265 21.4127 47.2532 22.426L54.3732 26.386C56.3065 27.4527 57.8132 30.026 57.8132 32.2393V39.7727C57.8132 41.986 56.3065 44.546 54.3732 45.626L47.2532 49.5727C46.3332 50.0794 45.1732 50.3327 43.9999 50.3327ZM43.9999 23.666C43.1599 23.666 42.3332 23.8393 41.7199 24.1727L34.5999 28.1327C33.3199 28.8393 32.1865 30.7593 32.1865 32.226V39.7593C32.1865 41.226 33.3199 43.146 34.5999 43.866L41.7199 47.826C42.9332 48.506 45.0665 48.506 46.2799 47.826L53.3999 43.866C54.6799 43.146 55.8132 41.2393 55.8132 39.7593V32.226C55.8132 30.7593 54.6799 28.8393 53.3999 28.1193L46.2799 24.1593C45.6665 23.8393 44.8399 23.666 43.9999 23.666Z" fill="#AF04EB"/>
</svg>
