<svg width="88" height="72" viewBox="0 0 88 72" fill="none" xmlns="http://www.w3.org/2000/svg">
<rect width="88" height="72" rx="8" fill="#F5F5F5"/>
<path d="M51.4132 43.9593H36.5865C31.2798 43.9593 29.6665 42.346 29.6665 37.0393V28.586C29.6665 23.2793 31.2798 21.666 36.5865 21.666H51.3998C56.7065 21.666 58.3198 23.2793 58.3198 28.586V37.026C58.3332 42.346 56.7198 43.9593 51.4132 43.9593ZM36.5865 23.666C32.3998 23.666 31.6665 24.3993 31.6665 28.586V37.026C31.6665 41.2127 32.3998 41.946 36.5865 41.946H51.3998C55.5865 41.946 56.3198 41.2127 56.3198 37.026V28.586C56.3198 24.3993 55.5865 23.666 51.3998 23.666H36.5865Z" fill="#163AFA"/>
<path d="M44 50.3343C43.4533 50.3343 43 49.8809 43 49.3343V42.9609C43 42.4143 43.4533 41.9609 44 41.9609C44.5467 41.9609 45 42.4143 45 42.9609V49.3343C45 49.8809 44.5467 50.3343 44 50.3343Z" fill="#163AFA"/>
<path d="M57.3332 38.334H30.6665C30.1198 38.334 29.6665 37.8807 29.6665 37.334C29.6665 36.7873 30.1198 36.334 30.6665 36.334H57.3332C57.8798 36.334 58.3332 36.7873 58.3332 37.334C58.3332 37.8807 57.8798 38.334 57.3332 38.334Z" fill="#163AFA"/>
<path d="M50 50.334H38C37.4533 50.334 37 49.8807 37 49.334C37 48.7873 37.4533 48.334 38 48.334H50C50.5467 48.334 51 48.7873 51 49.334C51 49.8807 50.5467 50.334 50 50.334Z" fill="#163AFA"/>
</svg>
