<svg width="88" height="72" viewBox="0 0 88 72" fill="none" xmlns="http://www.w3.org/2000/svg">
<rect width="88" height="72" rx="8" fill="#F5F5F5"/>
<path d="M44.0134 42.6657C42.8801 42.6657 41.7334 42.3724 40.8401 41.7991L32.8134 36.5591C31.3201 35.5857 30.4268 33.9457 30.4268 32.1591C30.4268 30.3724 31.3201 28.7324 32.8134 27.7591L40.8534 22.5324C42.6401 21.3724 45.4268 21.3724 47.2001 22.5457L55.1868 27.7857C56.6668 28.7591 57.5601 30.3991 57.5601 32.1724C57.5601 33.9457 56.6668 35.5857 55.1868 36.5591L47.2001 41.7991C46.3068 42.3857 45.1601 42.6657 44.0134 42.6657ZM44.0134 23.6657C43.2534 23.6657 42.4934 23.8391 41.9468 24.2124L33.9201 29.4391C32.9868 30.0524 32.4401 31.0391 32.4401 32.1591C32.4401 33.2791 32.9734 34.2657 33.9201 34.8791L41.9468 40.1191C43.0534 40.8391 45.0001 40.8391 46.1068 40.1191L54.0934 34.8791C55.0268 34.2657 55.5601 33.2791 55.5601 32.1591C55.5601 31.0391 55.0268 30.0524 54.0934 29.4391L46.1068 24.1991C45.5468 23.8524 44.7868 23.6657 44.0134 23.6657Z" fill="#FB941C"/>
<path d="M43.9999 50.3328C43.4132 50.3328 42.8132 50.2528 42.3332 50.0928L38.0799 48.6795C36.0666 48.0128 34.4799 45.8128 34.4932 43.6928L34.5066 37.4395C34.5066 36.8928 34.9599 36.4395 35.5066 36.4395C36.0532 36.4395 36.5066 36.8928 36.5066 37.4395L36.4932 43.6928C36.4932 44.9461 37.5332 46.3861 38.7199 46.7861L42.9732 48.1995C43.5066 48.3728 44.4932 48.3728 45.0266 48.1995L49.2799 46.7861C50.4666 46.3861 51.5066 44.9461 51.5066 43.7061V37.5195C51.5066 36.9728 51.9599 36.5195 52.5066 36.5195C53.0532 36.5195 53.5066 36.9728 53.5066 37.5195V43.7061C53.5066 45.8261 51.9332 48.0128 49.9199 48.6928L45.6666 50.1061C45.1866 50.2528 44.5866 50.3328 43.9999 50.3328Z" fill="#FB941C"/>
<path d="M56.5332 41C55.9865 41 55.5332 40.5467 55.5332 40V32C55.5332 31.4533 55.9865 31 56.5332 31C57.0799 31 57.5332 31.4533 57.5332 32V40C57.5332 40.5467 57.0799 41 56.5332 41Z" fill="#FB941C"/>
</svg>
