<svg width="88" height="72" viewBox="0 0 88 72" fill="none" xmlns="http://www.w3.org/2000/svg">
<rect width="88" height="72" rx="8" fill="#F5F5F5"/>
<path d="M13.717 46.4781L13.1096 44.8092L18.9272 39.3205L19.5839 41.1247L15.5558 44.8638L21.045 45.139L21.7016 46.9432L13.717 46.4781ZM25.0956 32.4525L27.2381 31.6727L26.7595 49.7251L24.617 50.5049L25.0956 32.4525ZM37.682 46.0051C36.4942 46.4374 35.4615 46.4302 34.5837 45.9834C33.7211 45.5312 33.0653 44.6887 32.6166 43.4558L29.5302 34.976C29.0815 33.7431 29.0422 32.6762 29.4124 31.7753C29.7976 30.8688 30.5841 30.1995 31.7719 29.7672C32.9597 29.3349 33.9849 29.3448 34.8476 29.797C35.7253 30.2438 36.3885 31.0836 36.8373 32.3164L37.4447 33.9853L35.0992 34.839L34.4343 33.0123C34.0786 32.035 33.4873 31.6968 32.6604 31.9978C31.8335 32.2988 31.5979 32.9379 31.9536 33.9152L35.1631 42.7333C35.5133 43.6955 36.1019 44.0261 36.9288 43.7252C37.7557 43.4242 37.9941 42.7926 37.6439 41.8303L36.7655 39.4172L39.111 38.5635L39.9237 40.7962C40.3724 42.0291 40.4041 43.0988 40.0189 44.0052C39.6487 44.9061 38.8698 45.5727 37.682 46.0051ZM46.4497 42.8139C45.2318 43.2571 44.1738 43.2506 43.2756 42.7943C42.3773 42.338 41.6984 41.4784 41.2387 40.2154L38.218 31.9161C37.7583 30.6531 37.7259 29.5582 38.1206 28.6313C38.5154 27.7043 39.3217 27.0192 40.5396 26.576C41.7574 26.1327 42.8155 26.1393 43.7137 26.5956C44.6119 27.0519 45.2909 27.9115 45.7506 29.1744L48.7713 37.4738C49.231 38.7367 49.2634 39.8317 48.8686 40.7586C48.4738 41.6855 47.6675 42.3706 46.4497 42.8139ZM45.6288 40.5586C46.4858 40.2467 46.7255 39.572 46.3479 38.5346L43.2123 29.9195C42.8347 28.8821 42.2174 28.5193 41.3604 28.8313C40.5034 29.1432 40.2637 29.8178 40.6413 30.8553L43.7769 39.4704C44.1545 40.5078 44.7718 40.8705 45.6288 40.5586ZM46.0656 24.8201L49.8545 23.441C51.0874 22.9923 52.1324 22.9865 52.9896 23.4237C53.8469 23.8609 54.508 24.7185 54.9732 25.9965L57.879 33.9801C58.3441 35.2581 58.3889 36.34 58.0132 37.2259C57.6376 38.1118 56.8333 38.7791 55.6004 39.2279L51.8116 40.6069L46.0656 24.8201ZM54.7345 36.989C55.1404 36.8413 55.4049 36.6088 55.5278 36.2916C55.6658 35.969 55.6362 35.537 55.4392 34.9958L52.4514 26.7866C52.2544 26.2454 51.9993 25.8955 51.6862 25.737C51.3882 25.5731 51.0362 25.565 50.6302 25.7127L49.3673 26.1724L53.4715 37.4487L54.7345 36.989ZM55.2277 21.4854L61.9934 19.0228L62.8143 21.2781L58.5293 22.8377L60.0479 27.0099L63.4533 25.7705L64.2742 28.0257L60.8687 29.2652L62.6335 34.114L66.9185 32.5544L67.7394 34.8097L60.9736 37.2722L55.2277 21.4854ZM67.3173 28.2973L71.3454 24.5581L65.8562 24.2829L65.1995 22.4787L73.1841 22.9438L73.7916 24.6127L67.974 30.1015L67.3173 28.2973Z" fill="#04E227"/>
</svg>
