<svg width="52" height="52" viewBox="0 0 52 52" fill="none" xmlns="http://www.w3.org/2000/svg">
<rect width="52" height="52" rx="8" fill="#F5F5F5"/>
<path d="M26.0133 32.6667C24.88 32.6667 23.7333 32.3734 22.84 31.8L14.8133 26.56C13.32 25.5867 12.4266 23.9467 12.4266 22.16C12.4266 20.3734 13.32 18.7334 14.8133 17.76L22.8533 12.5334C24.64 11.3734 27.4266 11.3734 29.2 12.5467L37.1866 17.7867C38.6666 18.76 39.56 20.4 39.56 22.1734C39.56 23.9467 38.6666 25.5867 37.1866 26.56L29.2 31.8C28.3066 32.3867 27.16 32.6667 26.0133 32.6667ZM26.0133 13.6667C25.2533 13.6667 24.4933 13.84 23.9466 14.2134L15.92 19.44C14.9866 20.0534 14.44 21.04 14.44 22.16C14.44 23.28 14.9733 24.2667 15.92 24.88L23.9466 30.12C25.0533 30.84 27 30.84 28.1066 30.12L36.0933 24.88C37.0266 24.2667 37.56 23.28 37.56 22.16C37.56 21.04 37.0266 20.0534 36.0933 19.44L28.1066 14.2C27.5466 13.8534 26.7866 13.6667 26.0133 13.6667Z" fill="#FB941C"/>
<path d="M26 40.3333C25.4134 40.3333 24.8134 40.2533 24.3334 40.0933L20.08 38.6799C18.0667 38.0133 16.48 35.8133 16.4934 33.6933L16.5067 27.4399C16.5067 26.8933 16.96 26.4399 17.5067 26.4399C18.0534 26.4399 18.5067 26.8933 18.5067 27.4399L18.4934 33.6933C18.4934 34.9466 19.5334 36.3866 20.72 36.7866L24.9734 38.1999C25.5067 38.3733 26.4934 38.3733 27.0267 38.1999L31.28 36.7866C32.4667 36.3866 33.5067 34.9466 33.5067 33.7066V27.5199C33.5067 26.9733 33.96 26.5199 34.5067 26.5199C35.0534 26.5199 35.5067 26.9733 35.5067 27.5199V33.7066C35.5067 35.8266 33.9334 38.0133 31.92 38.6933L27.6667 40.1066C27.1867 40.2533 26.5867 40.3333 26 40.3333Z" fill="#FB941C"/>
<path d="M38.5333 31C37.9867 31 37.5333 30.5467 37.5333 30V22C37.5333 21.4533 37.9867 21 38.5333 21C39.08 21 39.5333 21.4533 39.5333 22V30C39.5333 30.5467 39.08 31 38.5333 31Z" fill="#FB941C"/>
</svg>
