<svg width="40" height="40" viewBox="0 0 40 40" fill="none" xmlns="http://www.w3.org/2000/svg">
<rect width="40" height="40" rx="8" fill="white"/>
<path d="M14.8146 12.9812C16.1899 11.6059 18.0551 10.8333 20 10.8333C21.945 10.8333 23.8102 11.6059 25.1855 12.9812C26.5608 14.3565 27.3334 16.2217 27.3334 18.1667C27.3334 21.0066 25.4856 23.7622 23.4596 25.9008C22.4653 26.9503 21.4679 27.8095 20.7181 28.4066C20.439 28.6288 20.1953 28.8139 20 28.9582C19.8048 28.8139 19.5611 28.6288 19.282 28.4066C18.5322 27.8095 17.5348 26.9503 16.5405 25.9008C14.5145 23.7622 12.6667 21.0066 12.6667 18.1667C12.6667 16.2217 13.4393 14.3565 14.8146 12.9812ZM19.4911 30.8457C19.4913 30.8459 19.4916 30.8461 20 30.0833L19.4911 30.8457C19.799 31.051 20.2006 31.0513 20.5085 30.8461L20 30.0833C20.5085 30.8461 20.5082 30.8462 20.5085 30.8461L20.5116 30.844L20.5178 30.8399L20.5387 30.8257C20.5566 30.8135 20.5821 30.7961 20.6146 30.7736C20.6797 30.7285 20.7733 30.6628 20.8912 30.5776C21.1271 30.4073 21.4609 30.1587 21.8601 29.8408C22.6572 29.2061 23.7223 28.2893 24.7905 27.1617C26.8895 24.9461 29.1667 21.7435 29.1667 18.1667C29.1667 15.7355 28.2009 13.4039 26.4819 11.6849C24.7628 9.96577 22.4312 9 20 9C17.5689 9 15.2373 9.96577 13.5182 11.6849C11.7991 13.4039 10.8334 15.7355 10.8334 18.1667C10.8334 21.7435 13.1106 24.9461 15.2096 27.1617C16.2778 28.2893 17.3429 29.2061 18.14 29.8408C18.5392 30.1587 18.873 30.4073 19.1088 30.5776C19.2268 30.6628 19.3204 30.7285 19.3855 30.7736C19.418 30.7961 19.4435 30.8135 19.4613 30.8257L19.4823 30.8399L19.4884 30.844L19.4911 30.8457ZM18.1667 18.1667C18.1667 17.1542 18.9875 16.3333 20 16.3333C21.0126 16.3333 21.8334 17.1542 21.8334 18.1667C21.8334 19.1792 21.0126 20 20 20C18.9875 20 18.1667 19.1792 18.1667 18.1667ZM20 14.5C17.975 14.5 16.3334 16.1416 16.3334 18.1667C16.3334 20.1917 17.975 21.8333 20 21.8333C22.0251 21.8333 23.6667 20.1917 23.6667 18.1667C23.6667 16.1416 22.0251 14.5 20 14.5Z" fill="#163AFA"/>
</svg>
