<svg width="20" height="24" viewBox="0 0 20 24" fill="none" xmlns="http://www.w3.org/2000/svg">
<path d="M4.34315 4.34315C5.84344 2.84285 7.87827 2 10 2C12.1217 2 14.1566 2.84285 15.6569 4.34315C17.1572 5.84344 18 7.87827 18 10C18 13.0981 15.9843 16.1042 13.7741 18.4373C12.6894 19.5822 11.6013 20.5195 10.7833 21.1709C10.4789 21.4133 10.213 21.6152 10 21.7726C9.78701 21.6152 9.52112 21.4133 9.21667 21.1709C8.39867 20.5195 7.31061 19.5822 6.22595 18.4373C4.01573 16.1042 2 13.0981 2 10C2 7.87827 2.84285 5.84344 4.34315 4.34315ZM9.44475 23.8317C9.44504 23.8319 9.44531 23.8321 10 23L9.44475 23.8317C9.78064 24.0556 10.2188 24.056 10.5547 23.8321L10 23C10.5547 23.8321 10.5544 23.8323 10.5547 23.8321L10.5581 23.8298L10.5648 23.8253L10.5877 23.8098C10.6071 23.7966 10.6349 23.7776 10.6705 23.753C10.7415 23.7038 10.8435 23.6321 10.9722 23.5392C11.2295 23.3534 11.5936 23.0822 12.0292 22.7354C12.8987 22.043 14.0606 21.0428 15.226 19.8128C17.5157 17.3958 20 13.9019 20 10C20 7.34784 18.9464 4.80429 17.0711 2.92893C15.1957 1.05357 12.6522 0 10 0C7.34784 0 4.80429 1.05357 2.92893 2.92893C1.05357 4.80429 0 7.34784 0 10C0 13.9019 2.48427 17.3958 4.77405 19.8128C5.93939 21.0428 7.10133 22.043 7.97083 22.7354C8.40637 23.0822 8.77053 23.3534 9.02779 23.5392C9.15646 23.6321 9.25854 23.7038 9.32955 23.753C9.36507 23.7776 9.39286 23.7966 9.41232 23.8098L9.43523 23.8253L9.4419 23.8298L9.44475 23.8317ZM8 10C8 8.89544 8.89544 8 10 8C11.1046 8 12 8.89544 12 10C12 11.1046 11.1046 12 10 12C8.89544 12 8 11.1046 8 10ZM10 6C7.79085 6 6 7.79085 6 10C6 12.2091 7.79085 14 10 14C12.2091 14 14 12.2091 14 10C14 7.79085 12.2091 6 10 6Z" fill="#333333"/>
</svg>
