<svg width="32" height="32" viewBox="0 0 32 32" fill="none" xmlns="http://www.w3.org/2000/svg">
<rect width="32" height="32" rx="8" fill="#163AFA"/>
<path d="M16.0098 21C15.1598 21 14.2998 20.78 13.6298 20.35L7.60982 16.42C6.48982 15.69 5.81982 14.46 5.81982 13.12C5.81982 11.78 6.48982 10.55 7.60982 9.82003L13.6398 5.90003C14.9798 5.03003 17.0698 5.03003 18.3998 5.91003L24.3898 9.84003C25.4998 10.57 26.1698 11.8 26.1698 13.13C26.1698 14.46 25.4998 15.69 24.3898 16.42L18.3998 20.35C17.7298 20.79 16.8698 21 16.0098 21ZM16.0098 6.75003C15.4398 6.75003 14.8698 6.88003 14.4598 7.16003L8.43982 11.08C7.73982 11.54 7.32982 12.28 7.32982 13.12C7.32982 13.96 7.72982 14.7 8.43982 15.16L14.4598 19.09C15.2898 19.63 16.7498 19.63 17.5798 19.09L23.5698 15.16C24.2698 14.7 24.6698 13.96 24.6698 13.12C24.6698 12.28 24.2698 11.54 23.5698 11.08L17.5798 7.15003C17.1598 6.89003 16.5898 6.75003 16.0098 6.75003Z" fill="white"/>
<path d="M16.0002 26.7501C15.5602 26.7501 15.1102 26.6901 14.7502 26.5701L11.5602 25.5101C10.0502 25.0101 8.86018 23.3601 8.87018 21.7701L8.88018 17.0801C8.88018 16.6701 9.22018 16.3301 9.63018 16.3301C10.0402 16.3301 10.3802 16.6701 10.3802 17.0801L10.3702 21.7701C10.3702 22.7101 11.1502 23.7901 12.0402 24.0901L15.2302 25.1501C15.6302 25.2801 16.3702 25.2801 16.7702 25.1501L19.9602 24.0901C20.8502 23.7901 21.6302 22.7101 21.6302 21.7801V17.1401C21.6302 16.7301 21.9702 16.3901 22.3802 16.3901C22.7902 16.3901 23.1302 16.7301 23.1302 17.1401V21.7801C23.1302 23.3701 21.9502 25.0101 20.4402 25.5201L17.2502 26.5801C16.8902 26.6901 16.4402 26.7501 16.0002 26.7501Z" fill="white"/>
<path d="M25.3999 19.75C24.9899 19.75 24.6499 19.41 24.6499 19V13C24.6499 12.59 24.9899 12.25 25.3999 12.25C25.8099 12.25 26.1499 12.59 26.1499 13V19C26.1499 19.41 25.8099 19.75 25.3999 19.75Z" fill="white"/>
</svg>
