<svg width="32" height="32" viewBox="0 0 32 32" fill="none" xmlns="http://www.w3.org/2000/svg">
<path d="M23.4134 23.9598H8.58675C3.28008 23.9598 1.66675 22.3465 1.66675 17.0398V8.5865C1.66675 3.27984 3.28008 1.6665 8.58675 1.6665H23.4001C28.7067 1.6665 30.3201 3.27984 30.3201 8.5865V17.0265C30.3334 22.3465 28.7201 23.9598 23.4134 23.9598ZM8.58675 3.6665C4.40008 3.6665 3.66675 4.39984 3.66675 8.5865V17.0265C3.66675 21.2132 4.40008 21.9465 8.58675 21.9465H23.4001C27.5867 21.9465 28.3201 21.2132 28.3201 17.0265V8.5865C28.3201 4.39984 27.5867 3.6665 23.4001 3.6665H8.58675V3.6665Z" fill="#163AFA"/>
<path d="M16 30.3333C15.4533 30.3333 15 29.88 15 29.3333V22.96C15 22.4133 15.4533 21.96 16 21.96C16.5467 21.96 17 22.4133 17 22.96V29.3333C17 29.88 16.5467 30.3333 16 30.3333Z" fill="#163AFA"/>
<path d="M29.3334 18.3335H2.66675C2.12008 18.3335 1.66675 17.8802 1.66675 17.3335C1.66675 16.7868 2.12008 16.3335 2.66675 16.3335H29.3334C29.8801 16.3335 30.3334 16.7868 30.3334 17.3335C30.3334 17.8802 29.8801 18.3335 29.3334 18.3335Z" fill="#163AFA"/>
<path d="M22 30.3335H10C9.45333 30.3335 9 29.8802 9 29.3335C9 28.7868 9.45333 28.3335 10 28.3335H22C22.5467 28.3335 23 28.7868 23 29.3335C23 29.8802 22.5467 30.3335 22 30.3335Z" fill="#163AFA"/>
</svg>
