<svg width="40" height="40" viewBox="0 0 40 40" fill="none" xmlns="http://www.w3.org/2000/svg">
<rect width="40" height="40" rx="8" fill="white"/>
<path d="M25.45 30.75C24.32 30.75 23.13 30.48 21.9 29.96C20.7 29.45 19.49 28.75 18.31 27.9C17.14 27.04 16.01 26.08 14.94 25.03C13.88 23.96 12.92 22.83 12.07 21.67C11.21 20.47 10.52 19.27 10.03 18.11C9.51 16.87 9.25 15.67 9.25 14.54C9.25 13.76 9.39 13.02 9.66 12.33C9.94 11.62 10.39 10.96 11 10.39C11.77 9.63 12.65 9.25 13.59 9.25C13.98 9.25 14.38 9.34 14.72 9.5C15.11 9.68 15.44 9.95 15.68 10.31L18 13.58C18.21 13.87 18.37 14.15 18.48 14.43C18.61 14.73 18.68 15.03 18.68 15.32C18.68 15.7 18.57 16.07 18.36 16.42C18.21 16.69 17.98 16.98 17.69 17.27L17.01 17.98C17.02 18.01 17.03 18.03 17.04 18.05C17.16 18.26 17.4 18.62 17.86 19.16C18.35 19.72 18.81 20.23 19.27 20.7C19.86 21.28 20.35 21.74 20.81 22.12C21.38 22.6 21.75 22.84 21.97 22.95L21.95 23L22.68 22.28C22.99 21.97 23.29 21.74 23.58 21.59C24.13 21.25 24.83 21.19 25.53 21.48C25.79 21.59 26.07 21.74 26.37 21.95L29.69 24.31C30.06 24.56 30.33 24.88 30.49 25.26C30.64 25.64 30.71 25.99 30.71 26.34C30.71 26.82 30.6 27.3 30.39 27.75C30.18 28.2 29.92 28.59 29.59 28.95C29.02 29.58 28.4 30.03 27.68 30.32C26.99 30.6 26.24 30.75 25.45 30.75ZM13.59 10.75C13.04 10.75 12.53 10.99 12.04 11.47C11.58 11.9 11.26 12.37 11.06 12.88C10.85 13.4 10.75 13.95 10.75 14.54C10.75 15.47 10.97 16.48 11.41 17.52C11.86 18.58 12.49 19.68 13.29 20.78C14.09 21.88 15 22.95 16 23.96C17 24.95 18.08 25.87 19.19 26.68C20.27 27.47 21.38 28.11 22.48 28.57C24.19 29.3 25.79 29.47 27.11 28.92C27.62 28.71 28.07 28.39 28.48 27.93C28.71 27.68 28.89 27.41 29.04 27.09C29.16 26.84 29.22 26.58 29.22 26.32C29.22 26.16 29.19 26 29.11 25.82C29.08 25.76 29.02 25.65 28.83 25.52L25.51 23.16C25.31 23.02 25.13 22.92 24.96 22.85C24.74 22.76 24.65 22.67 24.31 22.88C24.11 22.98 23.93 23.13 23.73 23.33L22.97 24.08C22.58 24.46 21.98 24.55 21.52 24.38L21.25 24.26C20.84 24.04 20.36 23.7 19.83 23.25C19.35 22.84 18.83 22.36 18.2 21.74C17.71 21.24 17.22 20.71 16.71 20.12C16.24 19.57 15.9 19.1 15.69 18.71L15.57 18.41C15.51 18.18 15.49 18.05 15.49 17.91C15.49 17.55 15.62 17.23 15.87 16.98L16.62 16.2C16.82 16 16.97 15.81 17.07 15.64C17.15 15.51 17.18 15.4 17.18 15.3C17.18 15.22 17.15 15.1 17.1 14.98C17.03 14.82 16.92 14.64 16.78 14.45L14.46 11.17C14.36 11.03 14.24 10.93 14.09 10.86C13.93 10.79 13.76 10.75 13.59 10.75ZM21.95 23.01L21.79 23.69L22.06 22.99C22.01 22.98 21.97 22.99 21.95 23.01Z" fill="#163AFA"/>
</svg>
