<svg width="24" height="25" viewBox="0 0 24 25" fill="none" xmlns="http://www.w3.org/2000/svg">
<path d="M21 7.22998C20.98 7.22998 20.95 7.22998 20.92 7.22998C15.63 6.69998 10.35 6.49998 5.12004 7.02998L3.08004 7.22998C2.66004 7.26998 2.29004 6.96998 2.25004 6.54998C2.21004 6.12998 2.51004 5.76998 2.92004 5.72998L4.96004 5.52998C10.28 4.98998 15.67 5.19998 21.07 5.72998C21.48 5.76998 21.78 6.13998 21.74 6.54998C21.71 6.93998 21.38 7.22998 21 7.22998Z" fill="#FB361B"/>
<path d="M8.50001 6.22C8.46001 6.22 8.42001 6.22 8.37001 6.21C7.97001 6.14 7.69001 5.75 7.76001 5.35L7.98001 4.04C8.14001 3.08 8.36001 1.75 10.69 1.75H13.31C15.65 1.75 15.87 3.13 16.02 4.05L16.24 5.35C16.31 5.76 16.03 6.15 15.63 6.21C15.22 6.28 14.83 6 14.77 5.6L14.55 4.3C14.41 3.43 14.38 3.26 13.32 3.26H10.7C9.64001 3.26 9.62001 3.4 9.47001 4.29L9.24001 5.59C9.18001 5.96 8.86001 6.22 8.50001 6.22Z" fill="#FB361B"/>
<path d="M15.21 23.2501H8.79002C5.30002 23.2501 5.16002 21.3201 5.05002 19.7601L4.40002 9.69007C4.37002 9.28007 4.69002 8.92008 5.10002 8.89008C5.52002 8.87008 5.87002 9.18008 5.90002 9.59008L6.55002 19.6601C6.66002 21.1801 6.70002 21.7501 8.79002 21.7501H15.21C17.31 21.7501 17.35 21.1801 17.45 19.6601L18.1 9.59008C18.13 9.18008 18.49 8.87008 18.9 8.89008C19.31 8.92008 19.63 9.27007 19.6 9.69007L18.95 19.7601C18.84 21.3201 18.7 23.2501 15.21 23.2501Z" fill="#FB361B"/>
<path d="M13.66 17.75H10.33C9.91996 17.75 9.57996 17.41 9.57996 17C9.57996 16.59 9.91996 16.25 10.33 16.25H13.66C14.07 16.25 14.41 16.59 14.41 17C14.41 17.41 14.07 17.75 13.66 17.75Z" fill="#FB361B"/>
<path d="M14.5 13.75H9.5C9.09 13.75 8.75 13.41 8.75 13C8.75 12.59 9.09 12.25 9.5 12.25H14.5C14.91 12.25 15.25 12.59 15.25 13C15.25 13.41 14.91 13.75 14.5 13.75Z" fill="#FB361B"/>
</svg>
