<svg width="52" height="52" viewBox="0 0 52 52" fill="none" xmlns="http://www.w3.org/2000/svg">
<rect width="52" height="52" rx="8" fill="#F5F5F5"/>
<path d="M25.9999 27.7333C25.8266 27.7333 25.6533 27.6933 25.4933 27.6L13.7199 20.7866C13.2533 20.5066 13.0799 19.8933 13.3599 19.4133C13.6399 18.9333 14.2533 18.7733 14.7333 19.0533L25.9999 25.5733L37.1999 19.0933C37.6799 18.8133 38.2933 18.9866 38.5733 19.4533C38.8533 19.9333 38.6799 20.5466 38.2133 20.8266L26.5199 27.6C26.3466 27.68 26.1733 27.7333 25.9999 27.7333Z" fill="#AF04EB"/>
<path d="M26 39.8135C25.4533 39.8135 25 39.3602 25 38.8135V26.7202C25 26.1735 25.4533 25.7202 26 25.7202C26.5467 25.7202 27 26.1735 27 26.7202V38.8135C27 39.3602 26.5467 39.8135 26 39.8135Z" fill="#AF04EB"/>
<path d="M26 40.3332C24.8266 40.3332 23.6666 40.0798 22.7466 39.5732L15.6266 35.6132C13.6933 34.5465 12.1866 31.9732 12.1866 29.7598V22.2265C12.1866 20.0132 13.6933 17.4532 15.6266 16.3732L22.7466 12.4265C24.5733 11.4132 27.4266 11.4132 29.2533 12.4265L36.3733 16.3865C38.3066 17.4532 39.8133 20.0265 39.8133 22.2398V29.7732C39.8133 31.9865 38.3066 34.5465 36.3733 35.6265L29.2533 39.5732C28.3333 40.0798 27.1733 40.3332 26 40.3332ZM26 13.6665C25.16 13.6665 24.3333 13.8398 23.72 14.1732L16.6 18.1332C15.32 18.8398 14.1866 20.7598 14.1866 22.2265V29.7598C14.1866 31.2265 15.32 33.1465 16.6 33.8665L23.72 37.8265C24.9333 38.5065 27.0666 38.5065 28.28 37.8265L35.4 33.8665C36.68 33.1465 37.8133 31.2398 37.8133 29.7598V22.2265C37.8133 20.7598 36.68 18.8398 35.4 18.1198L28.28 14.1598C27.6666 13.8398 26.84 13.6665 26 13.6665Z" fill="#AF04EB"/>
</svg>
